<svg xmlns="http://www.w3.org/2000/svg" width="427.902099609375" height="451.81201171875" viewBox="-328.5541687011719 -204.77247619628906 427.902099609375 451.81201171875"><title>Neo4j Graph Visualization</title><desc>Created using Neo4j (http://www.neo4j.com/)</desc><g class="layer relationships"><g class="relationship" transform="translate(-130 19.520612762092238) rotate(451.3891425396235)"><path class="b-outline" fill="#A5ABB6" stroke="none" d="M 25 0.5 L 63.226134777691726 0.5 L 63.226134777691726 -0.5 L 25 -0.5 Z M 128.35113477769173 0.5 L 166.57726955538345 0.5 L 166.57726955538345 3.5 L 173.57726955538345 0 L 166.57726955538345 -3.5 L 166.57726955538345 -0.5 L 128.35113477769173 -0.5 Z"/><text text-anchor="middle" pointer-events="none" font-size="8px" fill="#000000" x="95.78863477769173" y="3" transform="rotate(180 95.78863477769173 0)" font-family="Helvetica Neue, Helvetica, Arial, sans-serif">HAS_POSITION</text></g><g class="relationship" transform="translate(-130 19.520612762092238) rotate(422.5977908291991)"><path class="b-outline" fill="#A5ABB6" stroke="none" d="M 25 0.5 L 71.09689334198863 0.5 L 71.09689334198863 -0.5 L 25 -0.5 Z M 119.76876834198863 0.5 L 165.86566168397727 0.5 L 165.86566168397727 3.5 L 172.86566168397727 0 L 165.86566168397727 -3.5 L 165.86566168397727 -0.5 L 119.76876834198863 -0.5 Z"/><text text-anchor="middle" pointer-events="none" font-size="8px" fill="#000000" x="95.43283084198863" y="3" font-family="Helvetica Neue, Helvetica, Arial, sans-serif">WORKS_IN</text></g><g class="relationship" transform="translate(-130 19.520612762092238) rotate(394.06368214205565)"><path class="b-outline" fill="#A5ABB6" stroke="none" d="M 25 0.5 L 37.82517756943001 0.5 L 37.82517756943001 -0.5 L 25 -0.5 Z M 104.28220881943001 0.5 L 117.10738638886002 0.5 L 117.10738638886002 3.5 L 124.10738638886002 0 L 117.10738638886002 -3.5 L 117.10738638886002 -0.5 L 104.28220881943001 -0.5 Z"/><text text-anchor="middle" pointer-events="none" font-size="8px" fill="#000000" x="71.05369319443001" y="3" font-family="Helvetica Neue, Helvetica, Arial, sans-serif">HAS_INTEREST</text></g><g class="relationship" transform="translate(-130 19.520612762092238) rotate(366.1302131436702)"><path class="b-outline" fill="#A5ABB6" stroke="none" d="M 25 0.5 L 64.02156427026024 0.5 L 64.02156427026024 -0.5 L 25 -0.5 Z M 130.47859552026023 0.5 L 169.50015979052048 0.5 L 169.50015979052048 3.5 L 176.50015979052048 0 L 169.50015979052048 -3.5 L 169.50015979052048 -0.5 L 130.47859552026023 -0.5 Z"/><text text-anchor="middle" pointer-events="none" font-size="8px" fill="#000000" x="97.25007989526024" y="3" font-family="Helvetica Neue, Helvetica, Arial, sans-serif">HAS_INTEREST</text></g><g class="relationship" transform="translate(-130 19.520612762092238) rotate(351.97975899156074)"><path class="b-outline" fill="#A5ABB6" stroke="none" d="M 25 0.5 L 25.863435073945062 0.5 L 25.863435073945062 -0.5 L 25 -0.5 Z M 78.98452882394506 0.5 L 79.84796389789012 0.5 L 79.84796389789012 3.5 L 86.84796389789012 0 L 79.84796389789012 -3.5 L 79.84796389789012 -0.5 L 78.98452882394506 -0.5 Z"/><text text-anchor="middle" pointer-events="none" font-size="8px" fill="#000000" x="52.42398194894506" y="3" font-family="Helvetica Neue, Helvetica, Arial, sans-serif">HAS_INTE…</text></g><g class="relationship" transform="translate(-130 19.520612762092238) rotate(337.6351669855601)"><path class="b-outline" fill="#A5ABB6" stroke="none" d="M 25 0.5 L 64.00106705538421 0.5 L 64.00106705538421 -0.5 L 25 -0.5 Z M 130.45809830538423 0.5 L 169.45916536076842 0.5 L 169.45916536076842 3.5 L 176.45916536076842 0 L 169.45916536076842 -3.5 L 169.45916536076842 -0.5 L 130.45809830538423 -0.5 Z"/><text text-anchor="middle" pointer-events="none" font-size="8px" fill="#000000" x="97.22958268038421" y="3" font-family="Helvetica Neue, Helvetica, Arial, sans-serif">HAS_INTEREST</text></g><g class="relationship" transform="translate(-130 19.520612762092238) rotate(310.20668176766605)"><path class="b-outline" fill="#A5ABB6" stroke="none" d="M 25 0.5 L 38.12541102958707 0.5 L 38.12541102958707 -0.5 L 25 -0.5 Z M 104.58244227958707 0.5 L 117.70785330917414 0.5 L 117.70785330917414 3.5 L 124.70785330917414 0 L 117.70785330917414 -3.5 L 117.70785330917414 -0.5 L 104.58244227958707 -0.5 Z"/><text text-anchor="middle" pointer-events="none" font-size="8px" fill="#000000" x="71.35392665458707" y="3" font-family="Helvetica Neue, Helvetica, Arial, sans-serif">HAS_INTEREST</text></g><g class="relationship" transform="translate(-130 19.520612762092238) rotate(281.63757495280123)"><path class="b-outline" fill="#A5ABB6" stroke="none" d="M 25 0.5 L 62.96746211661302 0.5 L 62.96746211661302 -0.5 L 25 -0.5 Z M 129.42449336661304 0.5 L 167.39195548322604 0.5 L 167.39195548322604 3.5 L 174.39195548322604 0 L 167.39195548322604 -3.5 L 167.39195548322604 -0.5 L 129.42449336661304 -0.5 Z"/><text text-anchor="middle" pointer-events="none" font-size="8px" fill="#000000" x="96.19597774161302" y="3" font-family="Helvetica Neue, Helvetica, Arial, sans-serif">HAS_INTEREST</text></g><g class="relationship" transform="translate(-130 19.520612762092238) rotate(268.21742913852603)"><path class="b-outline" fill="#A5ABB6" stroke="none" d="M 25 0.5 L 26.54181430169217 0.5 L 26.54181430169217 -0.5 L 25 -0.5 Z M 75.06134555169217 0.5 L 76.60315985338434 0.5 L 76.60315985338434 3.5 L 83.60315985338434 0 L 76.60315985338434 -3.5 L 76.60315985338434 -0.5 L 75.06134555169217 -0.5 Z"/><text text-anchor="middle" pointer-events="none" font-size="8px" fill="#000000" x="50.80157992669217" y="3" transform="rotate(180 50.80157992669217 0)" font-family="Helvetica Neue, Helvetica, Arial, sans-serif">ATTENDED</text></g><g class="relationship" transform="translate(-130 19.520612762092238) rotate(252.68413955579962)"><path class="b-outline" fill="#A5ABB6" stroke="none" d="M 25 0.5 L 70.86675824267881 0.5 L 70.86675824267881 -0.5 L 25 -0.5 Z M 119.38628949267881 0.5 L 165.25304773535763 0.5 L 165.25304773535763 3.5 L 172.25304773535763 0 L 165.25304773535763 -3.5 L 165.25304773535763 -0.5 L 119.38628949267881 -0.5 Z"/><text text-anchor="middle" pointer-events="none" font-size="8px" fill="#000000" x="95.12652386767881" y="3" transform="rotate(180 95.12652386767881 0)" font-family="Helvetica Neue, Helvetica, Arial, sans-serif">ATTENDED</text></g><g class="relationship" transform="translate(-130 19.520612762092238) rotate(224.59448904925256)"><path class="b-outline" fill="#A5ABB6" stroke="none" d="M 25 0.5 L 44.761140248042054 0.5 L 44.761140248042054 -0.5 L 25 -0.5 Z M 93.28067149804205 0.5 L 113.04181174608411 0.5 L 113.04181174608411 3.5 L 120.04181174608411 0 L 113.04181174608411 -3.5 L 113.04181174608411 -0.5 L 93.28067149804205 -0.5 Z"/><text text-anchor="middle" pointer-events="none" font-size="8px" fill="#000000" x="69.02090587304205" y="3" transform="rotate(180 69.02090587304205 0)" font-family="Helvetica Neue, Helvetica, Arial, sans-serif">ATTENDED</text></g><g class="relationship" transform="translate(-130 19.520612762092238) rotate(189.60831495607232)"><path class="b-outline" fill="#A5ABB6" stroke="none" d="M 25 0.5 L 52.14148311092464 0.5 L 52.14148311092464 -0.5 L 25 -0.5 Z M 112.82507686092464 0.5 L 139.96655997184928 0.5 L 139.96655997184928 3.5 L 146.96655997184928 0 L 139.96655997184928 -3.5 L 139.96655997184928 -0.5 L 112.82507686092464 -0.5 Z"/><text text-anchor="middle" pointer-events="none" font-size="8px" fill="#000000" x="82.48327998592464" y="3" transform="rotate(180 82.48327998592464 0)" font-family="Helvetica Neue, Helvetica, Arial, sans-serif">HAS_DEGREE</text></g><g class="relationship" transform="translate(-130 19.520612762092238) rotate(515.8583381960568)"><path class="b-outline" fill="#A5ABB6" stroke="none" d="M 25 0.5 L 49.58338057595442 0.5 L 49.58338057595442 -0.5 L 25 -0.5 Z M 110.26697432595442 0.5 L 134.85035490190884 0.5 L 134.85035490190884 3.5 L 141.85035490190884 0 L 134.85035490190884 -3.5 L 134.85035490190884 -0.5 L 110.26697432595442 -0.5 Z"/><text text-anchor="middle" pointer-events="none" font-size="8px" fill="#000000" x="79.92517745095442" y="3" transform="rotate(180 79.92517745095442 0)" font-family="Helvetica Neue, Helvetica, Arial, sans-serif">HAS_DEGREE</text></g><g class="relationship" transform="translate(-130 19.520612762092238) rotate(479.7937103025377)"><path class="b-outline" fill="#A5ABB6" stroke="none" d="M 25 0.5 L 41.24600582267966 0.5 L 41.24600582267966 -0.5 L 25 -0.5 Z M 101.92959957267966 0.5 L 118.17560539535933 0.5 L 118.17560539535933 3.5 L 125.17560539535933 0 L 118.17560539535933 -3.5 L 118.17560539535933 -0.5 L 101.92959957267966 -0.5 Z"/><text text-anchor="middle" pointer-events="none" font-size="8px" fill="#000000" x="71.58780269767966" y="3" transform="rotate(180 71.58780269767966 0)" font-family="Helvetica Neue, Helvetica, Arial, sans-serif">HAS_DEGREE</text></g><g class="relationship" transform="translate(-130 19.520612762092238) rotate(437.0561325824816)"><path class="b-outline" fill="#A5ABB6" stroke="none" d="M 25 0.5 L 27.547075580797 0.5 L 27.547075580797 -0.5 L 25 -0.5 Z M 73.558794330797 0.5 L 76.105869911594 0.5 L 76.105869911594 3.5 L 83.105869911594 0 L 76.105869911594 -3.5 L 76.105869911594 -0.5 L 73.558794330797 -0.5 Z"/><text text-anchor="middle" pointer-events="none" font-size="8px" fill="#000000" x="50.552934955797" y="3" font-family="Helvetica Neue, Helvetica, Arial, sans-serif">HAS_DE…</text></g></g><g class="layer nodes"><g class="node" aria-label="graph-node0" transform="translate(-130,19.520612762092238)"><circle class="b-outline" cx="0" cy="0" r="25" fill="#F79767" stroke="#f36924" stroke-width="2px"/><text class="caption" text-anchor="middle" pointer-events="none" x="0" y="0" font-size="10px" fill="#FFFFFF" font-family="Helvetica Neue, Helvetica, Arial, sans-serif"> Clare</text><text class="caption" text-anchor="middle" pointer-events="none" x="0" y="10" font-size="10px" fill="#FFFFFF" font-family="Helvetica Neue, Helvetica, Arial, sans-serif"> Fung</text></g><g class="node" aria-label="graph-node14" transform="translate(-134.81405629171581,218.03952079377473)"><circle class="b-outline" cx="0" cy="0" r="25" fill="#57C7E3" stroke="#23b3d7" stroke-width="2px"/><text class="caption" text-anchor="middle" pointer-events="none" x="0" y="0" font-size="10px" fill="#2A2C34" font-family="Helvetica Neue, Helvetica, Arial, sans-serif"> Academic</text><text class="caption" text-anchor="middle" pointer-events="none" x="0" y="10" font-size="10px" fill="#2A2C34" font-family="Helvetica Neue, Helvetica, Arial, sans-serif"> Staff</text></g><g class="node" aria-label="graph-node74" transform="translate(-38.935491853202755,195.18528032395582)"><circle class="b-outline" cx="0" cy="0" r="25" fill="#F16667" stroke="#eb2728" stroke-width="2px"/><text class="caption" text-anchor="middle" pointer-events="none" x="0" y="0" font-size="10px" fill="#FFFFFF" font-family="Helvetica Neue, Helvetica, Arial, sans-serif"> School of</text><text class="caption" text-anchor="middle" pointer-events="none" x="0" y="10" font-size="10px" fill="#FFFFFF" font-family="Helvetica Neue, Helvetica, Arial, sans-serif">an…</text></g><g class="node" aria-label="graph-node76" transform="translate(-6.477124231937326,103.03774775668212)"><circle class="b-outline" cx="0" cy="0" r="25" fill="#D9C8AE" stroke="#c0a378" stroke-width="2px"/><text class="caption" text-anchor="middle" pointer-events="none" x="0" y="0" font-size="10px" fill="#2A2C34" font-family="Helvetica Neue, Helvetica, Arial, sans-serif"> Tourism</text><text class="caption" text-anchor="middle" pointer-events="none" x="0" y="10" font-size="10px" fill="#2A2C34" font-family="Helvetica Neue, Helvetica, Arial, sans-serif"> Mana…</text></g><g class="node" aria-label="graph-node77" transform="translate(70.34793570190803,41.03849034305767)"><circle class="b-outline" cx="0" cy="0" r="25" fill="#D9C8AE" stroke="#c0a378" stroke-width="2px"/><text class="caption" text-anchor="middle" pointer-events="none" x="0" y="0" font-size="10px" fill="#2A2C34" font-family="Helvetica Neue, Helvetica, Arial, sans-serif"> Teaching</text><text class="caption" text-anchor="middle" pointer-events="none" x="0" y="10" font-size="10px" fill="#2A2C34" font-family="Helvetica Neue, Helvetica, Arial, sans-serif"> Area</text></g><g class="node" aria-label="graph-node78" transform="translate(-19.246038825748887,3.9152575172985618)"><circle class="b-outline" cx="0" cy="0" r="25" fill="#D9C8AE" stroke="#c0a378" stroke-width="2px"/><text class="caption" text-anchor="middle" pointer-events="none" x="0" y="0" font-size="10px" fill="#2A2C34" font-family="Helvetica Neue, Helvetica, Arial, sans-serif"> Airline</text><text class="caption" text-anchor="middle" pointer-events="none" x="0" y="10" font-size="10px" fill="#2A2C34" font-family="Helvetica Neue, Helvetica, Arial, sans-serif"> Mana…</text></g><g class="node" aria-label="graph-node79" transform="translate(56.30535712219451,-57.13517120382263)"><circle class="b-outline" cx="0" cy="0" r="25" fill="#D9C8AE" stroke="#c0a378" stroke-width="2px"/><text class="caption" text-anchor="middle" pointer-events="none" x="0" y="-5" font-size="10px" fill="#2A2C34" font-family="Helvetica Neue, Helvetica, Arial, sans-serif"> Inflight</text><text class="caption" text-anchor="middle" pointer-events="none" x="0" y="5" font-size="10px" fill="#2A2C34" font-family="Helvetica Neue, Helvetica, Arial, sans-serif"> Service</text><text class="caption" text-anchor="middle" pointer-events="none" x="0" y="15" font-size="10px" fill="#2A2C34" font-family="Helvetica Neue, Helvetica, Arial, sans-serif"> Ma</text></g><g class="node" aria-label="graph-node80" transform="translate(-33.35658089676917,-94.81438138440029)"><circle class="b-outline" cx="0" cy="0" r="25" fill="#D9C8AE" stroke="#c0a378" stroke-width="2px"/><text class="caption" text-anchor="middle" pointer-events="none" x="0" y="0" font-size="10px" fill="#2A2C34" font-family="Helvetica Neue, Helvetica, Arial, sans-serif"> Airport</text><text class="caption" text-anchor="middle" pointer-events="none" x="0" y="10" font-size="10px" fill="#2A2C34" font-family="Helvetica Neue, Helvetica, Arial, sans-serif"> Mana…</text></g><g class="node" aria-label="graph-node81" transform="translate(-89.7785969530323,-175.77247633313965)"><circle class="b-outline" cx="0" cy="0" r="25" fill="#D9C8AE" stroke="#c0a378" stroke-width="2px"/><text class="caption" text-anchor="middle" pointer-events="none" x="0" y="0" font-size="10px" fill="#2A2C34" font-family="Helvetica Neue, Helvetica, Arial, sans-serif"> Hospitality</text><text class="caption" text-anchor="middle" pointer-events="none" x="0" y="10" font-size="10px" fill="#2A2C34" font-family="Helvetica Neue, Helvetica, Arial, sans-serif"> Marketi</text></g><g class="node" aria-label="graph-node136" transform="translate(-133.37828720268033,-89.02999067112667)"><circle class="b-outline" cx="0" cy="0" r="25" fill="#8DCC93" stroke="#5db665" stroke-width="2px"/><text class="caption" text-anchor="middle" pointer-events="none" x="0" y="0" font-size="10px" fill="#2A2C34" font-family="Helvetica Neue, Helvetica, Arial, sans-serif"> The</text><text class="caption" text-anchor="middle" pointer-events="none" x="0" y="10" font-size="10px" fill="#2A2C34" font-family="Helvetica Neue, Helvetica, Arial, sans-serif"> Bourn…</text></g><g class="node" aria-label="graph-node137" transform="translate(-188.71023077942004,-168.79262002497057)"><circle class="b-outline" cx="0" cy="0" r="25" fill="#8DCC93" stroke="#5db665" stroke-width="2px"/><text class="caption" text-anchor="middle" pointer-events="none" x="0" y="-10" font-size="10px" fill="#2A2C34" font-family="Helvetica Neue, Helvetica, Arial, sans-serif"> The</text><text class="caption" text-anchor="middle" pointer-events="none" x="0" y="0" font-size="10px" fill="#2A2C34" font-family="Helvetica Neue, Helvetica, Arial, sans-serif"> Hong</text><text class="caption" text-anchor="middle" pointer-events="none" x="0" y="10" font-size="10px" fill="#2A2C34" font-family="Helvetica Neue, Helvetica, Arial, sans-serif"> Kong</text><text class="caption" text-anchor="middle" pointer-events="none" x="0" y="20" font-size="10px" fill="#2A2C34" font-family="Helvetica Neue, Helvetica, Arial, sans-serif">Po…</text></g><g class="node" aria-label="graph-node138" transform="translate(-233.28334279492086,-82.31100440906623)"><circle class="b-outline" cx="0" cy="0" r="25" fill="#8DCC93" stroke="#5db665" stroke-width="2px"/><text class="caption" text-anchor="middle" pointer-events="none" x="0" y="0" font-size="10px" fill="#2A2C34" font-family="Helvetica Neue, Helvetica, Arial, sans-serif"> University</text><text class="caption" text-anchor="middle" pointer-events="none" x="0" y="10" font-size="10px" fill="#2A2C34" font-family="Helvetica Neue, Helvetica, Arial, sans-serif">…</text></g><g class="node" aria-label="graph-node159" transform="translate(-299.5541829136591,-9.182641496494409)"><circle class="b-outline" cx="0" cy="0" r="25" fill="#ECB5C9" stroke="#da7298" stroke-width="2px"/><text class="caption" text-anchor="middle" pointer-events="none" x="0" y="5" font-size="10px" fill="#2A2C34" font-family="Helvetica Neue, Helvetica, Arial, sans-serif"> PhD</text></g><g class="node" aria-label="graph-node160" transform="translate(-282.2571263663101,87.76142460930296)"><circle class="b-outline" cx="0" cy="0" r="25" fill="#ECB5C9" stroke="#da7298" stroke-width="2px"/><text class="caption" text-anchor="middle" pointer-events="none" x="0" y="5" font-size="10px" fill="#2A2C34" font-family="Helvetica Neue, Helvetica, Arial, sans-serif"> MSc</text></g><g class="node" aria-label="graph-node161" transform="translate(-204.61905932134266,149.84600722480093)"><circle class="b-outline" cx="0" cy="0" r="25" fill="#ECB5C9" stroke="#da7298" stroke-width="2px"/><text class="caption" text-anchor="middle" pointer-events="none" x="0" y="5" font-size="10px" fill="#2A2C34" font-family="Helvetica Neue, Helvetica, Arial, sans-serif"> PCEd</text></g><g class="node" aria-label="graph-node162" transform="translate(-105.78467888671352,124.87951050083525)"><circle class="b-outline" cx="0" cy="0" r="25" fill="#ECB5C9" stroke="#da7298" stroke-width="2px"/><text class="caption" text-anchor="middle" pointer-events="none" x="0" y="5" font-size="10px" fill="#2A2C34" font-family="Helvetica Neue, Helvetica, Arial, sans-serif"> BSc</text></g></g></svg>