<svg xmlns="http://www.w3.org/2000/svg" width="905.2930908203125" height="693.49462890625" viewBox="-447.402587890625 -305.3609313964844 905.2930908203125 693.49462890625"><title>Neo4j Graph Visualization</title><desc>Created using Neo4j (http://www.neo4j.com/)</desc><g class="layer relationships"><g class="relationship" transform="translate(-213.88196721947304 -115.88619930081143) rotate(354.66506748399695)"><path class="b-outline" fill="#A5ABB6" stroke="none" d="M 25 0.5 L 99.90680634852691 0.5 L 99.90680634852691 -0.5 L 25 -0.5 Z M 166.3638375985269 0.5 L 241.27064394705383 0.5 L 241.27064394705383 3.5 L 248.27064394705383 0 L 241.27064394705383 -3.5 L 241.27064394705383 -0.5 L 166.3638375985269 -0.5 Z"/><text text-anchor="middle" pointer-events="none" font-size="8px" fill="#000000" x="133.1353219735269" y="3" font-family="Helvetica Neue, Helvetica, Arial, sans-serif">HAS_INTEREST</text></g><g class="relationship" transform="translate(-213.88196721947304 -115.88619930081143) rotate(441.1058092003359)"><path class="b-outline" fill="#A5ABB6" stroke="none" d="M 25 0.5 L 25.957545904106098 0.5 L 25.957545904106098 -0.5 L 25 -0.5 Z M 84.8559834041061 0.5 L 85.8135293082122 0.5 L 85.8135293082122 3.5 L 92.8135293082122 0 L 85.8135293082122 -3.5 L 85.8135293082122 -0.5 L 84.8559834041061 -0.5 Z"/><text text-anchor="middle" pointer-events="none" font-size="8px" fill="#000000" x="55.4067646541061" y="3" font-family="Helvetica Neue, Helvetica, Arial, sans-serif">HAS_INTER…</text></g><g class="relationship" transform="translate(-213.88196721947304 -115.88619930081143) rotate(310.98020604602743)"><path class="b-outline" fill="#A5ABB6" stroke="none" d="M 25 0.5 L 69.55512890921509 0.5 L 69.55512890921509 -0.5 L 25 -0.5 Z M 136.01216015921509 0.5 L 180.56728906843017 0.5 L 180.56728906843017 3.5 L 187.56728906843017 0 L 180.56728906843017 -3.5 L 180.56728906843017 -0.5 L 136.01216015921509 -0.5 Z"/><text text-anchor="middle" pointer-events="none" font-size="8px" fill="#000000" x="102.78364453421509" y="3" font-family="Helvetica Neue, Helvetica, Arial, sans-serif">HAS_INTEREST</text></g><g class="relationship" transform="translate(-213.88196721947304 -115.88619930081143) rotate(260.41994912615667)"><path class="b-outline" fill="#A5ABB6" stroke="none" d="M 25 0.5 L 40.340735711585666 0.5 L 40.340735711585666 -0.5 L 25 -0.5 Z M 106.79776696158567 0.5 L 122.13850267317133 0.5 L 122.13850267317133 3.5 L 129.13850267317133 0 L 122.13850267317133 -3.5 L 122.13850267317133 -0.5 L 106.79776696158567 -0.5 Z"/><text text-anchor="middle" pointer-events="none" font-size="8px" fill="#000000" x="73.56925133658567" y="3" transform="rotate(180 73.56925133658567 0)" font-family="Helvetica Neue, Helvetica, Arial, sans-serif">HAS_INTEREST</text></g><g class="relationship" transform="translate(-213.88196721947304 -115.88619930081143) rotate(199.11564755986234)"><path class="b-outline" fill="#A5ABB6" stroke="none" d="M 25 0.5 L 71.49954792321836 0.5 L 71.49954792321836 -0.5 L 25 -0.5 Z M 137.95657917321836 0.5 L 184.45612709643672 0.5 L 184.45612709643672 3.5 L 191.45612709643672 0 L 184.45612709643672 -3.5 L 184.45612709643672 -0.5 L 137.95657917321836 -0.5 Z"/><text text-anchor="middle" pointer-events="none" font-size="8px" fill="#000000" x="104.72806354821836" y="3" transform="rotate(180 104.72806354821836 0)" font-family="Helvetica Neue, Helvetica, Arial, sans-serif">HAS_INTEREST</text></g><g class="relationship" transform="translate(-213.88196721947304 -115.88619930081143) rotate(504.99619020358193)"><path class="b-outline" fill="#A5ABB6" stroke="none" d="M 25 0.5 L 83.36471028944418 0.5 L 83.36471028944418 -0.5 L 25 -0.5 Z M 149.8217415394442 0.5 L 208.18645182888835 0.5 L 208.18645182888835 3.5 L 215.18645182888835 0 L 208.18645182888835 -3.5 L 208.18645182888835 -0.5 L 149.8217415394442 -0.5 Z"/><text text-anchor="middle" pointer-events="none" font-size="8px" fill="#000000" x="116.59322591444418" y="3" transform="rotate(180 116.59322591444418 0)" font-family="Helvetica Neue, Helvetica, Arial, sans-serif">HAS_INTEREST</text></g><g class="relationship" transform="translate(-319.63957942509643 87.19338412559851) rotate(353.2476895829652)"><path class="b-outline" fill="#A5ABB6" stroke="none" d="M 25 0.5 L 43.02080375960979 0.5 L 43.02080375960979 -0.5 L 25 -0.5 Z M 109.47783500960979 0.5 L 127.49863876921958 0.5 L 127.49863876921958 3.5 L 134.49863876921958 0 L 127.49863876921958 -3.5 L 127.49863876921958 -0.5 L 109.47783500960979 -0.5 Z"/><text text-anchor="middle" pointer-events="none" font-size="8px" fill="#000000" x="76.24931938460979" y="3" font-family="Helvetica Neue, Helvetica, Arial, sans-serif">HAS_INTEREST</text></g><g class="relationship" transform="translate(-319.63957942509643 87.19338412559851) rotate(483.2766277228808)"><path class="b-outline" fill="#A5ABB6" stroke="none" d="M 25 0.5 L 34.31823258976506 0.5 L 34.31823258976506 -0.5 L 25 -0.5 Z M 100.77526383976506 0.5 L 110.09349642953012 0.5 L 110.09349642953012 3.5 L 117.09349642953012 0 L 110.09349642953012 -3.5 L 110.09349642953012 -0.5 L 100.77526383976506 -0.5 Z"/><text text-anchor="middle" pointer-events="none" font-size="8px" fill="#000000" x="67.54674821476506" y="3" transform="rotate(180 67.54674821476506 0)" font-family="Helvetica Neue, Helvetica, Arial, sans-serif">HAS_INTEREST</text></g><g class="relationship" transform="translate(-33.718076740911606 306.0813132514922) rotate(211.16230546999986)"><path class="b-outline" fill="#A5ABB6" stroke="none" d="M 25 0.5 L 56.00910290327019 0.5 L 56.00910290327019 -0.5 L 25 -0.5 Z M 122.46613415327019 0.5 L 153.47523705654038 0.5 L 153.47523705654038 3.5 L 160.47523705654038 0 L 153.47523705654038 -3.5 L 153.47523705654038 -0.5 L 122.46613415327019 -0.5 Z"/><text text-anchor="middle" pointer-events="none" font-size="8px" fill="#000000" x="89.23761852827019" y="3" transform="rotate(180 89.23761852827019 0)" font-family="Helvetica Neue, Helvetica, Arial, sans-serif">HAS_INTEREST</text></g><g class="relationship" transform="translate(-237.78584372728545 359.13367477747295) rotate(286.9271624896916)"><path class="b-outline" fill="#A5ABB6" stroke="none" d="M 25 0.5 L 41.16055113882655 0.5 L 41.16055113882655 -0.5 L 25 -0.5 Z M 107.61758238882655 0.5 L 123.7781335276531 0.5 L 123.7781335276531 3.5 L 130.7781335276531 0 L 123.7781335276531 -3.5 L 123.7781335276531 -0.5 L 107.61758238882655 -0.5 Z"/><text text-anchor="middle" pointer-events="none" font-size="8px" fill="#000000" x="74.38906676382655" y="3" font-family="Helvetica Neue, Helvetica, Arial, sans-serif">HAS_INTEREST</text></g><g class="relationship" transform="translate(-138.25533746648279 356.21160106889243) rotate(249.65580513641214)"><path class="b-outline" fill="#A5ABB6" stroke="none" d="M 25 0.5 L 41.18519779521938 0.5 L 41.18519779521938 -0.5 L 25 -0.5 Z M 107.64222904521938 0.5 L 123.82742684043876 0.5 L 123.82742684043876 3.5 L 130.82742684043876 0 L 123.82742684043876 -3.5 L 123.82742684043876 -0.5 L 107.64222904521938 -0.5 Z"/><text text-anchor="middle" pointer-events="none" font-size="8px" fill="#000000" x="74.41371342021938" y="3" transform="rotate(180 74.41371342021938 0)" font-family="Helvetica Neue, Helvetica, Arial, sans-serif">HAS_INTEREST</text></g><g class="relationship" transform="translate(-316.86098243142357 298.5984536486755) rotate(324.57995545171514)"><path class="b-outline" fill="#A5ABB6" stroke="none" d="M 25 0.5 L 39.616440316598656 0.5 L 39.616440316598656 -0.5 L 25 -0.5 Z M 106.07347156659866 0.5 L 120.68991188319731 0.5 L 120.68991188319731 3.5 L 127.68991188319731 0 L 120.68991188319731 -3.5 L 120.68991188319731 -0.5 L 106.07347156659866 -0.5 Z"/><text text-anchor="middle" pointer-events="none" font-size="8px" fill="#000000" x="72.84495594159866" y="3" font-family="Helvetica Neue, Helvetica, Arial, sans-serif">HAS_INTEREST</text></g><g class="relationship" transform="translate(44.723639664609095 -12.765614527523041) rotate(436.50793034921344)"><path class="b-outline" fill="#A5ABB6" stroke="none" d="M 25 0.5 L 53.14790585124902 0.5 L 53.14790585124902 -0.5 L 25 -0.5 Z M 119.60493710124902 0.5 L 147.75284295249804 0.5 L 147.75284295249804 3.5 L 154.75284295249804 0 L 147.75284295249804 -3.5 L 147.75284295249804 -0.5 L 119.60493710124902 -0.5 Z"/><text text-anchor="middle" pointer-events="none" font-size="8px" fill="#000000" x="86.37642147624902" y="3" font-family="Helvetica Neue, Helvetica, Arial, sans-serif">HAS_INTEREST</text></g><g class="relationship" transform="translate(-80.51897279297347 141.96536990856498) rotate(366.8425615880236)"><path class="b-outline" fill="#A5ABB6" stroke="none" d="M 25 0.5 L 47.46159081403292 0.5 L 47.46159081403292 -0.5 L 25 -0.5 Z M 113.91862206403292 0.5 L 136.38021287806583 0.5 L 136.38021287806583 3.5 L 143.38021287806583 0 L 136.38021287806583 -3.5 L 136.38021287806583 -0.5 L 113.91862206403292 -0.5 Z"/><text text-anchor="middle" pointer-events="none" font-size="8px" fill="#000000" x="80.69010643903292" y="3" font-family="Helvetica Neue, Helvetica, Arial, sans-serif">HAS_INTEREST</text></g><g class="relationship" transform="translate(44.723639664609095 -12.765614527523041) rotate(186.4598719816986)"><path class="b-outline" fill="#A5ABB6" stroke="none" d="M 25 0.5 L 42.789782334135836 0.5 L 42.789782334135836 -0.5 L 25 -0.5 Z M 109.24681358413584 0.5 L 127.03659591827167 0.5 L 127.03659591827167 3.5 L 134.03659591827167 0 L 127.03659591827167 -3.5 L 127.03659591827167 -0.5 L 109.24681358413584 -0.5 Z"/><text text-anchor="middle" pointer-events="none" font-size="8px" fill="#000000" x="76.01829795913584" y="3" transform="rotate(180 76.01829795913584 0)" font-family="Helvetica Neue, Helvetica, Arial, sans-serif">HAS_INTEREST</text></g><g class="relationship" transform="translate(44.723639664609095 -12.765614527523041) rotate(382.38831646692495)"><path class="b-outline" fill="#A5ABB6" stroke="none" d="M 25 0.5 L 28.542645317325892 0.5 L 28.542645317325892 -0.5 L 25 -0.5 Z M 94.99967656732589 0.5 L 98.54232188465178 0.5 L 98.54232188465178 3.5 L 105.54232188465178 0 L 98.54232188465178 -3.5 L 98.54232188465178 -0.5 L 94.99967656732589 -0.5 Z"/><text text-anchor="middle" pointer-events="none" font-size="8px" fill="#000000" x="61.77116094232589" y="3" font-family="Helvetica Neue, Helvetica, Arial, sans-serif">HAS_INTEREST</text></g><g class="relationship" transform="translate(44.723639664609095 -12.765614527523041) rotate(329.2501064584176)"><path class="b-outline" fill="#A5ABB6" stroke="none" d="M 25 0.5 L 29.32419890409001 0.5 L 29.32419890409001 -0.5 L 25 -0.5 Z M 95.78123015409001 0.5 L 100.10542905818002 0.5 L 100.10542905818002 3.5 L 107.10542905818002 0 L 100.10542905818002 -3.5 L 100.10542905818002 -0.5 L 95.78123015409001 -0.5 Z"/><text text-anchor="middle" pointer-events="none" font-size="8px" fill="#000000" x="62.55271452909001" y="3" font-family="Helvetica Neue, Helvetica, Arial, sans-serif">HAS_INTEREST</text></g><g class="relationship" transform="translate(44.723639664609095 -12.765614527523041) rotate(362.6413038644039)"><path class="b-outline" fill="#A5ABB6" stroke="none" d="M 25 0.5 L 119.51345619285149 0.5 L 119.51345619285149 -0.5 L 25 -0.5 Z M 185.9704874428515 0.5 L 280.483943635703 0.5 L 280.483943635703 3.5 L 287.483943635703 0 L 280.483943635703 -3.5 L 280.483943635703 -0.5 L 185.9704874428515 -0.5 Z"/><text text-anchor="middle" pointer-events="none" font-size="8px" fill="#000000" x="152.7419718178515" y="3" font-family="Helvetica Neue, Helvetica, Arial, sans-serif">HAS_INTEREST</text></g><g class="relationship" transform="translate(428.89046028785185 156.5448555023772) rotate(194.03959367205312)"><path class="b-outline" fill="#A5ABB6" stroke="none" d="M 25 0.5 L 43.012192689752965 0.5 L 43.012192689752965 -0.5 L 25 -0.5 Z M 109.46922393975296 0.5 L 127.48141662950593 0.5 L 127.48141662950593 3.5 L 134.48141662950593 0 L 127.48141662950593 -3.5 L 127.48141662950593 -0.5 L 109.46922393975296 -0.5 Z"/><text text-anchor="middle" pointer-events="none" font-size="8px" fill="#000000" x="76.24070831475296" y="3" transform="rotate(180 76.24070831475296 0)" font-family="Helvetica Neue, Helvetica, Arial, sans-serif">HAS_INTEREST</text></g><g class="relationship" transform="translate(44.723639664609095 -12.765614527523041) rotate(410.93014902111406)"><path class="b-outline" fill="#A5ABB6" stroke="none" d="M 25 0.5 L 74.2266335270079 0.5 L 74.2266335270079 -0.5 L 25 -0.5 Z M 140.6836647770079 0.5 L 189.9102983040158 0.5 L 189.9102983040158 3.5 L 196.9102983040158 0 L 189.9102983040158 -3.5 L 189.9102983040158 -0.5 L 140.6836647770079 -0.5 Z"/><text text-anchor="middle" pointer-events="none" font-size="8px" fill="#000000" x="107.4551491520079" y="3" font-family="Helvetica Neue, Helvetica, Arial, sans-serif">HAS_INTEREST</text></g><g class="relationship" transform="translate(-33.718076740911606 306.0813132514922) rotate(337.1321052587723)"><path class="b-outline" fill="#A5ABB6" stroke="none" d="M 25 0.5 L 45.21024508834857 0.5 L 45.21024508834857 -0.5 L 25 -0.5 Z M 111.66727633834857 0.5 L 131.87752142669714 0.5 L 131.87752142669714 3.5 L 138.87752142669714 0 L 131.87752142669714 -3.5 L 131.87752142669714 -0.5 L 111.66727633834857 -0.5 Z"/><text text-anchor="middle" pointer-events="none" font-size="8px" fill="#000000" x="78.43876071334857" y="3" font-family="Helvetica Neue, Helvetica, Arial, sans-serif">HAS_INTEREST</text></g><g class="relationship" transform="translate(-213.88196721947304 -115.88619930081143) rotate(343.76443569940307)"><path class="b-outline" fill="#A5ABB6" stroke="none" d="M 25 0.5 L 145.5955668017975 0.5 L 145.5955668017975 -0.5 L 25 -0.5 Z M 212.0525980517975 0.5 L 332.648164853595 0.5 L 332.648164853595 3.5 L 339.648164853595 0 L 332.648164853595 -3.5 L 332.648164853595 -0.5 L 212.0525980517975 -0.5 Z"/><text text-anchor="middle" pointer-events="none" font-size="8px" fill="#000000" x="178.8240824267975" y="3" font-family="Helvetica Neue, Helvetica, Arial, sans-serif">HAS_INTEREST</text></g><g class="relationship" transform="translate(-213.88196721947304 -115.88619930081143) rotate(333.597890191038)"><path class="b-outline" fill="#A5ABB6" stroke="none" d="M 25 0.5 L 81.64999734677245 0.5 L 81.64999734677245 -0.5 L 25 -0.5 Z M 148.10702859677247 0.5 L 204.7570259435449 0.5 L 204.7570259435449 3.5 L 211.7570259435449 0 L 204.7570259435449 -3.5 L 204.7570259435449 -0.5 L 148.10702859677247 -0.5 Z"/><text text-anchor="middle" pointer-events="none" font-size="8px" fill="#000000" x="114.87851297177245" y="3" font-family="Helvetica Neue, Helvetica, Arial, sans-serif">HAS_INTEREST</text></g><g class="relationship" transform="translate(-213.88196721947304 -115.88619930081143) rotate(373.251198811039)"><path class="b-outline" fill="#A5ABB6" stroke="none" d="M 25 0.5 L 69.03078697464206 0.5 L 69.03078697464206 -0.5 L 25 -0.5 Z M 135.48781822464207 0.5 L 179.5186051992841 0.5 L 179.5186051992841 3.5 L 186.5186051992841 0 L 179.5186051992841 -3.5 L 179.5186051992841 -0.5 L 135.48781822464207 -0.5 Z"/><text text-anchor="middle" pointer-events="none" font-size="8px" fill="#000000" x="102.25930259964206" y="3" font-family="Helvetica Neue, Helvetica, Arial, sans-serif">HAS_INTEREST</text></g></g><g class="layer nodes"><g class="node" aria-label="graph-node76" transform="translate(86.66191480084794,162.02644944593817)"><circle class="b-outline" cx="0" cy="0" r="25" fill="#D9C8AE" stroke="#c0a378" stroke-width="2px"/><text class="caption" text-anchor="middle" pointer-events="none" x="0" y="0" font-size="10px" fill="#2A2C34" font-family="Helvetica Neue, Helvetica, Arial, sans-serif"> Tourism</text><text class="caption" text-anchor="middle" pointer-events="none" x="0" y="10" font-size="10px" fill="#2A2C34" font-family="Helvetica Neue, Helvetica, Arial, sans-serif"> Mana…</text></g><g class="node" aria-label="graph-node77" transform="translate(165.42616704516854,36.955585045509565)"><circle class="b-outline" cx="0" cy="0" r="25" fill="#D9C8AE" stroke="#c0a378" stroke-width="2px"/><text class="caption" text-anchor="middle" pointer-events="none" x="0" y="0" font-size="10px" fill="#2A2C34" font-family="Helvetica Neue, Helvetica, Arial, sans-serif"> Teaching</text><text class="caption" text-anchor="middle" pointer-events="none" x="0" y="10" font-size="10px" fill="#2A2C34" font-family="Helvetica Neue, Helvetica, Arial, sans-serif"> Area</text></g><g class="node" aria-label="graph-node78" transform="translate(-113.30321631501738,-30.658396045946105)"><circle class="b-outline" cx="0" cy="0" r="25" fill="#D9C8AE" stroke="#c0a378" stroke-width="2px"/><text class="caption" text-anchor="middle" pointer-events="none" x="0" y="0" font-size="10px" fill="#2A2C34" font-family="Helvetica Neue, Helvetica, Arial, sans-serif"> Airline</text><text class="caption" text-anchor="middle" pointer-events="none" x="0" y="10" font-size="10px" fill="#2A2C34" font-family="Helvetica Neue, Helvetica, Arial, sans-serif"> Mana…</text></g><g class="node" aria-label="graph-node79" transform="translate(184.58645859039513,159.52069478203896)"><circle class="b-outline" cx="0" cy="0" r="25" fill="#D9C8AE" stroke="#c0a378" stroke-width="2px"/><text class="caption" text-anchor="middle" pointer-events="none" x="0" y="-5" font-size="10px" fill="#2A2C34" font-family="Helvetica Neue, Helvetica, Arial, sans-serif"> Inflight</text><text class="caption" text-anchor="middle" pointer-events="none" x="0" y="5" font-size="10px" fill="#2A2C34" font-family="Helvetica Neue, Helvetica, Arial, sans-serif"> Service</text><text class="caption" text-anchor="middle" pointer-events="none" x="0" y="15" font-size="10px" fill="#2A2C34" font-family="Helvetica Neue, Helvetica, Arial, sans-serif"> Ma</text></g><g class="node" aria-label="graph-node80" transform="translate(158.25601789238692,-80.30999608950518)"><circle class="b-outline" cx="0" cy="0" r="25" fill="#D9C8AE" stroke="#c0a378" stroke-width="2px"/><text class="caption" text-anchor="middle" pointer-events="none" x="0" y="0" font-size="10px" fill="#2A2C34" font-family="Helvetica Neue, Helvetica, Arial, sans-serif"> Airport</text><text class="caption" text-anchor="middle" pointer-events="none" x="0" y="10" font-size="10px" fill="#2A2C34" font-family="Helvetica Neue, Helvetica, Arial, sans-serif"> Mana…</text></g><g class="node" aria-label="graph-node81" transform="translate(356.8756030358926,1.634621358534332)"><circle class="b-outline" cx="0" cy="0" r="25" fill="#D9C8AE" stroke="#c0a378" stroke-width="2px"/><text class="caption" text-anchor="middle" pointer-events="none" x="0" y="0" font-size="10px" fill="#2A2C34" font-family="Helvetica Neue, Helvetica, Arial, sans-serif"> Hospitality</text><text class="caption" text-anchor="middle" pointer-events="none" x="0" y="10" font-size="10px" fill="#2A2C34" font-family="Helvetica Neue, Helvetica, Arial, sans-serif"> Marketi</text></g><g class="node" aria-label="graph-node82" transform="translate(274.17302199283563,117.85588371994423)"><circle class="b-outline" cx="0" cy="0" r="25" fill="#D9C8AE" stroke="#c0a378" stroke-width="2px"/><text class="caption" text-anchor="middle" pointer-events="none" x="0" y="0" font-size="10px" fill="#2A2C34" font-family="Helvetica Neue, Helvetica, Arial, sans-serif"> Customer</text><text class="caption" text-anchor="middle" pointer-events="none" x="0" y="10" font-size="10px" fill="#2A2C34" font-family="Helvetica Neue, Helvetica, Arial, sans-serif">Sa…</text></g><g class="node" aria-label="graph-node83" transform="translate(136.22414804851428,-217.83712957147327)"><circle class="b-outline" cx="0" cy="0" r="25" fill="#D9C8AE" stroke="#c0a378" stroke-width="2px"/><text class="caption" text-anchor="middle" pointer-events="none" x="0" y="5" font-size="10px" fill="#2A2C34" font-family="Helvetica Neue, Helvetica, Arial, sans-serif"> nanomat…</text></g><g class="node" aria-label="graph-node84" transform="translate(-7.9951585448713445,-67.40174448033747)"><circle class="b-outline" cx="0" cy="0" r="25" fill="#D9C8AE" stroke="#c0a378" stroke-width="2px"/><text class="caption" text-anchor="middle" pointer-events="none" x="0" y="5" font-size="10px" fill="#2A2C34" font-family="Helvetica Neue, Helvetica, Arial, sans-serif"> particula…</text></g><g class="node" aria-label="graph-node85" transform="translate(58.20492184214339,-141.29426187962835)"><circle class="b-outline" cx="0" cy="0" r="25" fill="#D9C8AE" stroke="#c0a378" stroke-width="2px"/><text class="caption" text-anchor="middle" pointer-events="none" x="0" y="5" font-size="10px" fill="#2A2C34" font-family="Helvetica Neue, Helvetica, Arial, sans-serif"> electroc…</text></g><g class="node" aria-label="graph-node86" transform="translate(-1.8197912939178593,-221.16451081534547)"><circle class="b-outline" cx="0" cy="0" r="25" fill="#D9C8AE" stroke="#c0a378" stroke-width="2px"/><text class="caption" text-anchor="middle" pointer-events="none" x="0" y="-5" font-size="10px" fill="#2A2C34" font-family="Helvetica Neue, Helvetica, Arial, sans-serif"> and</text><text class="caption" text-anchor="middle" pointer-events="none" x="0" y="5" font-size="10px" fill="#2A2C34" font-family="Helvetica Neue, Helvetica, Arial, sans-serif"> energy</text><text class="caption" text-anchor="middle" pointer-events="none" x="0" y="15" font-size="10px" fill="#2A2C34" font-family="Helvetica Neue, Helvetica, Arial, sans-serif"> stor…</text></g><g class="node" aria-label="graph-node87" transform="translate(-74.48070879285433,-276.36093728463436)"><circle class="b-outline" cx="0" cy="0" r="25" fill="#D9C8AE" stroke="#c0a378" stroke-width="2px"/><text class="caption" text-anchor="middle" pointer-events="none" x="0" y="5" font-size="10px" fill="#2A2C34" font-family="Helvetica Neue, Helvetica, Arial, sans-serif"> two-dim…</text></g><g class="node" aria-label="graph-node88" transform="translate(-239.53453450790892,-267.8750929668932)"><circle class="b-outline" cx="0" cy="0" r="25" fill="#D9C8AE" stroke="#c0a378" stroke-width="2px"/><text class="caption" text-anchor="middle" pointer-events="none" x="0" y="0" font-size="10px" fill="#2A2C34" font-family="Helvetica Neue, Helvetica, Arial, sans-serif"> graphene</text><text class="caption" text-anchor="middle" pointer-events="none" x="0" y="10" font-size="10px" fill="#2A2C34" font-family="Helvetica Neue, Helvetica, Arial, sans-serif"> oxide</text></g><g class="node" aria-label="graph-node89" transform="translate(-418.4025981056664,-186.7703759518963)"><circle class="b-outline" cx="0" cy="0" r="25" fill="#D9C8AE" stroke="#c0a378" stroke-width="2px"/><text class="caption" text-anchor="middle" pointer-events="none" x="0" y="5" font-size="10px" fill="#2A2C34" font-family="Helvetica Neue, Helvetica, Arial, sans-serif"> MoS2</text></g><g class="node" aria-label="graph-node90" transform="translate(-195.66679193743676,0.5106867292781772)"><circle class="b-outline" cx="0" cy="0" r="25" fill="#D9C8AE" stroke="#c0a378" stroke-width="2px"/><text class="caption" text-anchor="middle" pointer-events="none" x="0" y="5" font-size="10px" fill="#2A2C34" font-family="Helvetica Neue, Helvetica, Arial, sans-serif"> SnS etc</text></g><g class="node" aria-label="graph-node91" transform="translate(-410.62202931562535,21.89217203719299)"><circle class="b-outline" cx="0" cy="0" r="25" fill="#D9C8AE" stroke="#c0a378" stroke-width="2px"/><text class="caption" text-anchor="middle" pointer-events="none" x="0" y="5" font-size="10px" fill="#2A2C34" font-family="Helvetica Neue, Helvetica, Arial, sans-serif"> optoelec…</text></g><g class="node" aria-label="graph-node92" transform="translate(-397.60369866847947,205.98798769904556)"><circle class="b-outline" cx="0" cy="0" r="25" fill="#D9C8AE" stroke="#c0a378" stroke-width="2px"/><text class="caption" text-anchor="middle" pointer-events="none" x="0" y="5" font-size="10px" fill="#2A2C34" font-family="Helvetica Neue, Helvetica, Arial, sans-serif"> Nanofab…</text></g><g class="node" aria-label="graph-node94" transform="translate(-192.43014252636533,210.1045257698638)"><circle class="b-outline" cx="0" cy="0" r="25" fill="#D9C8AE" stroke="#c0a378" stroke-width="2px"/><text class="caption" text-anchor="middle" pointer-events="none" x="0" y="0" font-size="10px" fill="#2A2C34" font-family="Helvetica Neue, Helvetica, Arial, sans-serif"> materials</text><text class="caption" text-anchor="middle" pointer-events="none" x="0" y="10" font-size="10px" fill="#2A2C34" font-family="Helvetica Neue, Helvetica, Arial, sans-serif"> science</text></g><g class="node" aria-label="graph-node95" transform="translate(117.27921288941963,242.39724496709755)"><circle class="b-outline" cx="0" cy="0" r="25" fill="#D9C8AE" stroke="#c0a378" stroke-width="2px"/><text class="caption" text-anchor="middle" pointer-events="none" x="0" y="5" font-size="10px" fill="#2A2C34" font-family="Helvetica Neue, Helvetica, Arial, sans-serif"> nanomat…</text></g><g class="node" aria-label="graph-node3" transform="translate(-213.88196721947304,-115.88619930081143)"><circle class="b-outline" cx="0" cy="0" r="25" fill="#F79767" stroke="#f36924" stroke-width="2px"/><text class="caption" text-anchor="middle" pointer-events="none" x="0" y="-5" font-size="10px" fill="#FFFFFF" font-family="Helvetica Neue, Helvetica, Arial, sans-serif"> Prof</text><text class="caption" text-anchor="middle" pointer-events="none" x="0" y="5" font-size="10px" fill="#FFFFFF" font-family="Helvetica Neue, Helvetica, Arial, sans-serif"> Daniel</text><text class="caption" text-anchor="middle" pointer-events="none" x="0" y="15" font-size="10px" fill="#FFFFFF" font-family="Helvetica Neue, Helvetica, Arial, sans-serif">LA…</text></g><g class="node" aria-label="graph-node93" transform="translate(-161.24726842836137,68.43994213892437)"><circle class="b-outline" cx="0" cy="0" r="25" fill="#D9C8AE" stroke="#c0a378" stroke-width="2px"/><text class="caption" text-anchor="middle" pointer-events="none" x="0" y="5" font-size="10px" fill="#2A2C34" font-family="Helvetica Neue, Helvetica, Arial, sans-serif"> anodizat…</text></g><g class="node" aria-label="graph-node4" transform="translate(-319.63957942509643,87.19338412559851)"><circle class="b-outline" cx="0" cy="0" r="25" fill="#F79767" stroke="#f36924" stroke-width="2px"/><text class="caption" text-anchor="middle" pointer-events="none" x="0" y="-10" font-size="10px" fill="#FFFFFF" font-family="Helvetica Neue, Helvetica, Arial, sans-serif"> Dr</text><text class="caption" text-anchor="middle" pointer-events="none" x="0" y="0" font-size="10px" fill="#FFFFFF" font-family="Helvetica Neue, Helvetica, Arial, sans-serif"> Dennis</text><text class="caption" text-anchor="middle" pointer-events="none" x="0" y="10" font-size="10px" fill="#FFFFFF" font-family="Helvetica Neue, Helvetica, Arial, sans-serif"> C.W.</text><text class="caption" text-anchor="middle" pointer-events="none" x="0" y="20" font-size="10px" fill="#FFFFFF" font-family="Helvetica Neue, Helvetica, Arial, sans-serif">LE…</text></g><g class="node" aria-label="graph-node5" transform="translate(-33.718076740911606,306.0813132514922)"><circle class="b-outline" cx="0" cy="0" r="25" fill="#F79767" stroke="#f36924" stroke-width="2px"/><text class="caption" text-anchor="middle" pointer-events="none" x="0" y="0" font-size="10px" fill="#FFFFFF" font-family="Helvetica Neue, Helvetica, Arial, sans-serif"> Jianhua</text><text class="caption" text-anchor="middle" pointer-events="none" x="0" y="10" font-size="10px" fill="#FFFFFF" font-family="Helvetica Neue, Helvetica, Arial, sans-serif"> Hao</text></g><g class="node" aria-label="graph-node203" transform="translate(-237.78584372728545,359.13367477747295)"><circle class="b-outline" cx="0" cy="0" r="25" fill="#F79767" stroke="#f36924" stroke-width="2px"/><text class="caption" text-anchor="middle" pointer-events="none" x="0" y="0" font-size="10px" fill="#FFFFFF" font-family="Helvetica Neue, Helvetica, Arial, sans-serif"> Dr Ye</text><text class="caption" text-anchor="middle" pointer-events="none" x="0" y="10" font-size="10px" fill="#FFFFFF" font-family="Helvetica Neue, Helvetica, Arial, sans-serif"> ZHU</text></g><g class="node" aria-label="graph-node4868" transform="translate(-138.25533746648279,356.21160106889243)"><circle class="b-outline" cx="0" cy="0" r="25" fill="#F79767" stroke="#f36924" stroke-width="2px"/><text class="caption" text-anchor="middle" pointer-events="none" x="0" y="0" font-size="10px" fill="#FFFFFF" font-family="Helvetica Neue, Helvetica, Arial, sans-serif"> RUAN</text><text class="caption" text-anchor="middle" pointer-events="none" x="0" y="10" font-size="10px" fill="#FFFFFF" font-family="Helvetica Neue, Helvetica, Arial, sans-serif"> Haihui</text></g><g class="node" aria-label="graph-node4869" transform="translate(-316.86098243142357,298.5984536486755)"><circle class="b-outline" cx="0" cy="0" r="25" fill="#F79767" stroke="#f36924" stroke-width="2px"/><text class="caption" text-anchor="middle" pointer-events="none" x="0" y="-5" font-size="10px" fill="#FFFFFF" font-family="Helvetica Neue, Helvetica, Arial, sans-serif"> RUAN</text><text class="caption" text-anchor="middle" pointer-events="none" x="0" y="5" font-size="10px" fill="#FFFFFF" font-family="Helvetica Neue, Helvetica, Arial, sans-serif"> Haihui</text><text class="caption" text-anchor="middle" pointer-events="none" x="0" y="15" font-size="10px" fill="#FFFFFF" font-family="Helvetica Neue, Helvetica, Arial, sans-serif"> 阮…</text></g><g class="node" aria-label="graph-node0" transform="translate(44.723639664609095,-12.765614527523041)"><circle class="b-outline" cx="0" cy="0" r="25" fill="#F79767" stroke="#f36924" stroke-width="2px"/><text class="caption" text-anchor="middle" pointer-events="none" x="0" y="0" font-size="10px" fill="#FFFFFF" font-family="Helvetica Neue, Helvetica, Arial, sans-serif"> Clare</text><text class="caption" text-anchor="middle" pointer-events="none" x="0" y="10" font-size="10px" fill="#FFFFFF" font-family="Helvetica Neue, Helvetica, Arial, sans-serif"> Fung</text></g><g class="node" aria-label="graph-node1" transform="translate(-80.51897279297347,141.96536990856498)"><circle class="b-outline" cx="0" cy="0" r="25" fill="#F79767" stroke="#f36924" stroke-width="2px"/><text class="caption" text-anchor="middle" pointer-events="none" x="0" y="5" font-size="10px" fill="#FFFFFF" font-family="Helvetica Neue, Helvetica, Arial, sans-serif"> Pia Kwan</text></g><g class="node" aria-label="graph-node2" transform="translate(428.89046028785185,156.5448555023772)"><circle class="b-outline" cx="0" cy="0" r="25" fill="#F79767" stroke="#f36924" stroke-width="2px"/><text class="caption" text-anchor="middle" pointer-events="none" x="0" y="5" font-size="10px" fill="#FFFFFF" font-family="Helvetica Neue, Helvetica, Arial, sans-serif"> Kirk Yan</text></g></g></svg>